<svg width="25" height="24" viewBox="0 0 25 24" fill="none" xmlns="http://www.w3.org/2000/svg">
<path d="M6.5 22H18.5C19.6046 22 20.5 21.1046 20.5 20V8.91987C20.5 8.33602 20.2449 7.78132 19.8016 7.40136L14.0617 2.48149C13.6992 2.17078 13.2376 2 12.7602 2H6.5C5.39543 2 4.5 2.89543 4.5 4V20C4.5 21.1046 5.39543 22 6.5 22Z" stroke="#0C4654" stroke-linejoin="round"/>
<path d="M13 2.5V6H14V2.5H13ZM15.5 8.5H20V7.5H15.5V8.5ZM13 6C13 7.38071 14.1193 8.5 15.5 8.5V7.5C14.6716 7.5 14 6.82843 14 6H13Z" fill="#0C4654"/>
<path d="M14.5 11L14.8389 10.6324C14.6417 10.4506 14.3361 10.4568 14.1464 10.6464L14.5 11ZM8.5 19H8C8 19.2761 8.22386 19.5 8.5 19.5V19ZM16.5 12.8438L16.8581 13.1927C16.9523 13.096 17.0034 12.9653 16.9998 12.8304C16.9962 12.6954 16.9382 12.5676 16.8389 12.4761L16.5 12.8438ZM14.1464 10.6464L8.73223 16.0607L9.43934 16.7678L14.8536 11.3536L14.1464 10.6464ZM8 17.8284V19H9V17.8284H8ZM8.5 19.5H9.65647V18.5H8.5V19.5ZM11.4468 18.7449L16.8581 13.1927L16.1419 12.4948L10.7307 18.0469L11.4468 18.7449ZM16.8389 12.4761L14.8389 10.6324L14.1611 11.3676L16.1611 13.2114L16.8389 12.4761ZM9.65647 19.5C10.3307 19.5 10.9763 19.2277 11.4468 18.7449L10.7307 18.0469C10.4483 18.3366 10.061 18.5 9.65647 18.5V19.5ZM8.73223 16.0607C8.26339 16.5295 8 17.1654 8 17.8284H9C9 17.4306 9.15804 17.0491 9.43934 16.7678L8.73223 16.0607Z" fill="#0C4654"/>
</svg>
